<svg width="343" height="343" viewBox="0 0 343 343" fill="none" xmlns="http://www.w3.org/2000/svg">
<path d="M88.2676 237.528C109.918 250.109 139.032 252.139 163.261 246.02C175.431 242.94 184.472 236.512 194.961 230.393C209.655 221.811 220.645 222.717 237.102 221.743C285.006 218.916 298.705 172.831 293.553 140.911C287.297 102.097 251.844 71.4949 209.422 68.2501C180.864 66.0687 154.48 70.0543 132.124 82.2583C114.672 91.7868 112.689 106.817 109.842 124.228C107.668 137.516 106.282 152.354 98.1048 163.851C90.6206 174.368 79.7475 168.296 70.2258 175.513C45.962 193.816 70.0337 226.929 88.2676 237.528Z" fill="#F5951F"/>
<path opacity="0.9" d="M88.2676 237.528C109.918 250.109 139.032 252.139 163.261 246.02C175.431 242.94 184.472 236.512 194.961 230.393C209.655 221.811 220.645 222.717 237.102 221.743C285.006 218.916 298.705 172.831 293.553 140.911C287.297 102.097 251.844 71.4949 209.422 68.2501C180.864 66.0687 154.48 70.0543 132.124 82.2583C114.672 91.7868 112.689 106.817 109.842 124.228C107.668 137.516 106.282 152.354 98.1048 163.851C90.6206 174.368 79.7475 168.296 70.2258 175.513C45.962 193.816 70.0337 226.929 88.2676 237.528Z" fill="white"/>
<path d="M171.5 293.306C244.959 293.306 304.509 289.829 304.509 285.541C304.509 281.252 244.959 277.775 171.5 277.775C98.0414 277.775 38.4915 281.252 38.4915 285.541C38.4915 289.829 98.0414 293.306 171.5 293.306Z" fill="#F5F5F5"/>
<path d="M114.24 78.1628L113.807 77.6278C116.821 75.1827 119.958 72.8931 123.206 70.7678L123.583 71.344C120.354 73.4556 117.235 75.7315 114.24 78.1628Z" fill="#263238"/>
<path d="M109.177 82.4915L108.71 81.9839C109.63 81.1538 110.576 80.3237 111.516 79.5211L111.962 80.0493C111.022 80.8451 110.089 81.6683 109.177 82.4915Z" fill="#263238"/>
<path d="M185.153 166.212C217.994 137.442 228.185 95.3625 207.916 72.2251C187.646 49.0877 144.592 53.6541 111.751 82.4244C78.91 111.195 68.7189 153.274 88.9884 176.412C109.258 199.549 152.312 194.983 185.153 166.212Z" fill="#263238"/>
<path d="M180.289 160.66C208.779 135.702 217.62 99.1988 200.037 79.1278C182.453 59.0568 145.104 63.0185 116.615 87.9766C88.1256 112.935 79.2845 149.438 96.8677 169.509C114.451 189.58 151.8 185.618 180.289 160.66Z" fill="white"/>
<path d="M162.685 71.2685C132.988 73.6764 102.543 99.3945 94.6818 128.659L202.226 119.954C210.088 90.6618 192.382 68.8675 162.685 71.2685Z" fill="#5063BF"/>
<path opacity="0.7" d="M94.668 128.659L148.444 124.303L120.496 89.866C108.189 100.266 98.6125 114.013 94.668 128.659Z" fill="white"/>
<path opacity="0.4" d="M162.685 71.2685C147.84 72.4759 132.803 79.5005 120.496 89.8797L148.457 124.303L162.685 71.2685Z" fill="white"/>
<path opacity="0.1" d="M162.685 71.2685L148.457 124.303L196.539 83.7263C189.384 74.9181 177.537 70.068 162.685 71.2685Z" fill="white"/>
<path d="M161.439 139.143C173.063 128.96 176.672 114.067 169.5 105.88C162.327 97.6922 147.089 99.3103 135.465 109.494C123.841 119.677 120.232 134.57 127.404 142.757C134.577 150.945 149.815 149.326 161.439 139.143Z" fill="white"/>
<path d="M156.033 132.972C162.815 127.03 164.92 118.339 160.733 113.56C156.546 108.781 147.654 109.723 140.871 115.665C134.089 121.607 131.985 130.298 136.171 135.077C140.358 139.856 149.25 138.913 156.033 132.972Z" fill="#263238"/>
<path d="M188.705 95.9371C175.911 100.768 163.78 107.199 152.601 115.077L157.657 124.132C169.088 115.999 179.511 106.534 188.705 95.9371Z" fill="#263238"/>
<path d="M100.842 148.903C100.682 148.911 100.523 148.882 100.376 148.819C100.23 148.755 100.1 148.658 99.997 148.536C99.894 148.414 99.8207 148.269 99.7829 148.114C99.745 147.959 99.7436 147.797 99.7787 147.641C99.8584 147.255 100.058 146.904 100.348 146.638C100.639 146.372 101.006 146.204 101.398 146.159L160.524 141.474C160.691 141.448 160.862 141.464 161.021 141.52C161.181 141.575 161.324 141.669 161.439 141.793C161.554 141.917 161.637 142.067 161.681 142.23C161.725 142.393 161.728 142.564 161.69 142.729C161.613 143.114 161.415 143.465 161.125 143.73C160.835 143.995 160.468 144.161 160.078 144.204L101 148.896L100.842 148.903Z" fill="#F5951F"/>
<path d="M151.983 154.528C151.823 154.538 151.663 154.51 151.516 154.447C151.369 154.384 151.238 154.287 151.135 154.164C151.032 154.042 150.958 153.897 150.921 153.741C150.884 153.585 150.883 153.422 150.92 153.266C150.998 152.88 151.197 152.529 151.488 152.264C151.779 151.999 152.147 151.833 152.539 151.791L171.747 150.261C171.915 150.235 172.086 150.249 172.247 150.304C172.407 150.359 172.552 150.453 172.667 150.577C172.783 150.701 172.867 150.852 172.911 151.015C172.955 151.179 172.958 151.351 172.92 151.517C172.841 151.903 172.642 152.255 172.351 152.521C172.061 152.787 171.693 152.954 171.301 152.999L152.093 154.522L151.983 154.528Z" fill="#F5951F"/>
<path d="M54.2969 179.101C54.1373 179.109 53.9779 179.08 53.8313 179.016C53.6847 178.953 53.5549 178.856 53.4519 178.734C53.3489 178.611 53.2756 178.467 53.2377 178.312C53.1999 178.157 53.1985 177.995 53.2336 177.839C53.3151 177.449 53.5187 177.096 53.8149 176.831C54.1111 176.566 54.4842 176.402 54.88 176.364L74.088 174.834C74.2552 174.809 74.426 174.825 74.5857 174.88C74.7454 174.936 74.8892 175.03 75.0046 175.153C75.12 175.277 75.2037 175.427 75.2484 175.59C75.2931 175.753 75.2974 175.924 75.2611 176.089C75.1828 176.475 74.9847 176.825 74.6952 177.092C74.4057 177.358 74.0395 177.526 73.649 177.571L54.441 179.094L54.2969 179.101Z" fill="#F5951F"/>
<path d="M71.4058 167.871C71.2463 167.88 71.087 167.851 70.9406 167.787C70.7942 167.723 70.6646 167.626 70.5621 167.504C70.4596 167.381 70.387 167.237 70.3501 167.081C70.3132 166.926 70.3129 166.764 70.3493 166.609C70.4279 166.224 70.6262 165.874 70.9158 165.61C71.2054 165.345 71.5714 165.178 71.9614 165.134L129.585 160.558C129.753 160.533 129.923 160.549 130.083 160.605C130.243 160.66 130.387 160.754 130.502 160.878C130.617 161.001 130.701 161.151 130.746 161.314C130.79 161.477 130.795 161.649 130.758 161.814C130.679 162.2 130.479 162.551 130.189 162.817C129.898 163.083 129.531 163.25 129.14 163.295L71.5155 167.864L71.4058 167.871Z" fill="#F5951F"/>
<path d="M195.092 229.474L197.534 234.406L209.614 230.064L207.172 225.131L195.092 229.474Z" fill="#FFBE9D"/>
<path d="M136.356 270.037L140.026 274.146L149.356 263.548L144.835 260.406L136.356 270.037Z" fill="#FFBE9D"/>
<path d="M140.863 273.714L138.366 267.478C138.327 267.379 138.254 267.296 138.16 267.245C138.066 267.194 137.957 267.177 137.852 267.197L132.974 268.226C132.854 268.252 132.741 268.305 132.644 268.38C132.546 268.455 132.466 268.551 132.41 268.66C132.354 268.77 132.322 268.89 132.318 269.013C132.313 269.136 132.336 269.258 132.384 269.372C133.221 271.361 133.921 272.802 134.929 275.299C135.554 276.856 137.269 281.61 138.133 283.757C138.997 285.904 141.186 285.246 141.028 284.278C140.294 279.963 140.273 276.472 140.884 274.709C141.002 274.386 140.994 274.031 140.863 273.714Z" fill="#263238"/>
<path d="M198.089 234.091L195.421 228.699C195.372 228.602 195.292 228.525 195.193 228.479C195.095 228.433 194.985 228.421 194.879 228.445L190.008 229.645C189.889 229.672 189.778 229.726 189.684 229.803C189.589 229.88 189.513 229.977 189.462 230.088C189.411 230.199 189.386 230.32 189.389 230.442C189.392 230.563 189.423 230.683 189.48 230.791C190.475 232.719 191.977 235.469 193.191 237.912C194.604 240.772 194.797 240.861 196.457 244.209C197.458 246.233 199.784 245.787 199.551 244.847C198.48 240.566 197.884 239.826 198.295 235.47C198.355 235 198.284 234.522 198.089 234.091Z" fill="#263238"/>
<path d="M245.588 140.795C245.334 142.578 245.06 144.499 244.847 146.358C244.634 148.217 244.422 150.111 244.264 151.983C243.9 155.644 243.79 159.325 243.935 163C243.935 163.446 243.976 163.892 244.031 164.311L244.154 165.532C244.153 165.894 244.265 166.247 244.476 166.541C244.686 166.836 244.984 167.056 245.327 167.171C245.949 167.456 246.607 167.655 247.282 167.761C248.972 168.012 250.683 168.076 252.386 167.953C253.285 167.892 254.204 167.823 255.13 167.713C256.056 167.604 256.996 167.459 257.874 167.329L259.205 171.246C258.257 171.692 257.286 172.088 256.296 172.433C255.319 172.797 254.323 173.108 253.312 173.366C252.276 173.64 251.225 173.853 250.164 174.004C249.043 174.176 247.909 174.249 246.775 174.223C245.501 174.208 244.236 174.016 243.015 173.654C241.527 173.203 240.175 172.39 239.078 171.287C237.936 170.091 237.148 168.603 236.8 166.986C236.752 166.773 236.732 166.657 236.711 166.52L236.643 166.122L236.498 165.312C236.396 164.777 236.327 164.249 236.265 163.721C235.819 159.62 235.732 155.489 236.005 151.373C236.135 149.356 236.279 147.353 236.526 145.363C236.773 143.374 237.013 141.419 237.397 139.354L245.588 140.795Z" fill="#FFBE9D"/>
<path d="M236.8 135.828C233.192 139.663 234.646 149.342 234.646 149.342L244.785 150.92C244.785 150.92 247.138 145.432 246.253 139.772C245.17 132.899 240.745 131.609 236.8 135.828Z" fill="#F5951F"/>
<path opacity="0.2" d="M240.1 140.074C238.426 137.92 236.67 137.152 235.737 137.33C233.494 141.728 234.633 149.315 234.633 149.315L241.815 150.481C242.638 148.251 242.741 143.443 240.1 140.074Z" fill="black"/>
<path d="M256.523 167.926L262.402 164.071L263.705 170.039C263.705 170.039 260.049 173.743 257.003 171.13L256.523 167.926Z" fill="#FFBE9D"/>
<path d="M266.017 162.781L266.696 167.94L263.705 170.039L262.395 164.071L266.017 162.781Z" fill="#FFBE9D"/>
<path opacity="0.2" d="M209.607 230.071L203.385 232.307L200.943 227.368L207.165 225.131L209.607 230.071Z" fill="black"/>
<path opacity="0.2" d="M144.835 260.406L149.356 263.548L144.979 268.514L140.458 265.365L144.835 260.406Z" fill="black"/>
<path d="M215.912 122.595C211.741 143.937 200.634 163.193 199.084 167.446C203.063 169.113 218.079 175.369 226.263 178.778C241.527 156.065 243.866 139.628 244.216 135.65C244.241 135.365 244.19 135.079 244.07 134.821C243.949 134.562 243.763 134.339 243.53 134.175C242.878 133.701 241.836 132.961 240.566 132.117C239.88 131.678 239.146 131.218 238.358 130.745C237.925 130.491 237.479 130.244 237.027 130.004C233.269 128.183 229.409 126.58 225.468 125.202C224.727 124.934 223.965 124.674 223.218 124.44C222.47 124.207 221.846 124.022 221.194 123.844C218.271 123.062 215.912 122.595 215.912 122.595Z" fill="#F5951F"/>
<path d="M232.252 153.026L233.754 153.41C232.763 154.368 231.556 155.074 230.235 155.468C228.726 155.92 227.12 155.944 225.598 155.537C224.251 155.261 223.018 154.587 222.058 153.602C221.654 153.147 221.347 152.614 221.156 152.036C220.965 151.458 220.894 150.847 220.947 150.241C221.047 148.799 221.454 147.396 222.14 146.125C222.938 144.571 224.012 143.177 225.31 142.009C226.479 140.912 227.889 140.104 229.426 139.649C230.808 139.253 232.271 139.229 233.665 139.58C234.728 139.809 235.689 140.372 236.409 141.186C237.075 141.991 237.413 143.017 237.356 144.06C237.304 145.261 236.977 146.434 236.402 147.49C235.677 148.898 234.626 150.112 233.336 151.03C231.669 152.23 230.112 152.642 228.671 152.278C228.52 152.257 228.375 152.205 228.244 152.126C228.113 152.047 227.999 151.942 227.91 151.819C227.804 151.562 227.804 151.273 227.91 151.016C227.198 151.472 226.338 151.637 225.509 151.476C225.152 151.404 224.824 151.23 224.565 150.974C224.307 150.717 224.129 150.391 224.054 150.035C223.893 149.098 224.081 148.134 224.583 147.325C225.242 146.032 226.179 144.901 227.327 144.012C228.744 142.901 230.041 142.491 231.216 142.784C231.587 142.846 231.923 143.042 232.158 143.336C232.394 143.63 232.513 144 232.492 144.376L233.137 143.504L234.996 143.978L230.88 149.637C230.709 149.856 230.551 150.085 230.407 150.323C230.347 150.425 230.319 150.542 230.324 150.659C230.331 150.696 230.349 150.729 230.374 150.756C230.4 150.783 230.433 150.802 230.469 150.81C230.859 150.835 231.248 150.744 231.587 150.55C232.351 150.223 233.049 149.758 233.645 149.178C234.282 148.585 234.815 147.889 235.223 147.12C235.552 146.564 235.766 145.948 235.853 145.308C235.939 144.668 235.895 144.017 235.723 143.395C235.353 142.27 234.42 141.52 232.924 141.145C231.706 140.822 230.42 140.855 229.22 141.241C227.966 141.658 226.826 142.363 225.893 143.299C224.902 144.254 224.073 145.364 223.437 146.584C222.874 147.619 222.57 148.775 222.552 149.953C222.537 150.436 222.621 150.918 222.798 151.369C222.975 151.819 223.241 152.229 223.581 152.573C224.352 153.288 225.299 153.785 226.325 154.014C227.363 154.292 228.446 154.353 229.508 154.192C230.498 154.013 231.436 153.614 232.252 153.026ZM226.38 147.71C226.073 148.197 225.923 148.767 225.948 149.342C225.965 149.516 226.037 149.68 226.153 149.81C226.268 149.941 226.422 150.031 226.593 150.069C226.881 150.137 227.183 150.123 227.464 150.028C227.746 149.936 228.014 149.805 228.26 149.637C228.788 149.269 229.262 148.828 229.666 148.327C230.131 147.796 230.534 147.214 230.866 146.591C231.147 146.136 231.275 145.602 231.23 145.068C231.209 144.888 231.131 144.719 231.008 144.586C230.884 144.453 230.722 144.363 230.544 144.328C230.058 144.238 229.557 144.334 229.138 144.595C228.528 144.946 227.992 145.412 227.56 145.967C227.107 146.505 226.711 147.089 226.38 147.71Z" fill="white"/>
<path d="M232.067 112.813C231.251 116.833 229.138 123.953 225.502 125.346C226.682 128.2 228.356 131.623 232.712 133.619C237.068 135.615 237.555 132.247 237.054 130.189C233.322 127.445 234.715 124.44 236.636 121.854L232.067 112.813Z" fill="#FFBE9D"/>
<path opacity="0.2" d="M233.926 116.49L236.629 121.82C236.17 122.418 235.766 123.056 235.421 123.727C233.933 122.835 232.479 120.187 233 118.458C233.187 117.752 233.501 117.085 233.926 116.49Z" fill="black"/>
<path d="M243.036 112.964C247.337 113.279 251.145 102.55 244.868 101.302C240.635 100.458 240.676 102.989 240.23 105.761C239.784 108.532 240.313 112.765 243.036 112.964Z" fill="#263238"/>
<path d="M232.554 107.531C231.449 112.881 230.53 115.955 232.451 119.385C235.346 124.536 242.494 123.892 245.183 118.98C247.598 114.555 249.004 106.55 244.422 103.051C243.415 102.276 242.226 101.771 240.969 101.584C239.712 101.397 238.428 101.534 237.239 101.983C236.05 102.432 234.996 103.177 234.176 104.148C233.356 105.119 232.797 106.283 232.554 107.531Z" fill="#FFBE9D"/>
<path d="M231.642 111.358C235.943 111.674 238.824 101.864 232.547 100.609C228.315 99.765 227.958 102.241 228.026 104.889C228.095 107.702 228.911 111.132 231.642 111.358Z" fill="#263238"/>
<path d="M235.113 103.854C238.015 105.26 252.002 108.271 251.199 102.255C250.397 96.2389 242.926 93.4469 242.926 93.4469C242.926 93.4469 247.276 98.2146 243.688 97.069C240.1 95.9234 239.071 95.0865 234.77 94.325C234.77 94.325 238.996 97.8305 234.084 96.8426C231.235 96.2282 228.259 96.703 225.742 98.1735C226.99 99.0127 227.986 100.175 228.624 101.537C229.262 102.899 229.518 104.409 229.364 105.905C229.028 111.194 235.113 103.854 235.113 103.854Z" fill="#263238"/>
<path d="M229.124 111.612C229.313 112.857 229.983 113.978 230.99 114.734C232.307 115.701 233.508 114.589 233.597 112.984C233.672 111.537 233.082 109.287 231.539 108.964C229.995 108.642 228.918 110.062 229.124 111.612Z" fill="#FFBE9D"/>
<path d="M208.489 171.37L202.768 189.796L232.218 208.318C227.135 216.797 201.307 225.234 201.307 225.234L205.423 233.59C205.423 233.59 241.39 230.846 248.682 214.944C255.7 199.674 226.25 178.778 226.25 178.778L208.489 171.37Z" fill="#263238"/>
<path opacity="0.2" d="M212.31 195.798L207.172 192.581L213.497 183.388C213.497 183.388 213.675 190.756 212.31 195.798Z" fill="black"/>
<path opacity="0.2" d="M212.31 195.798L207.172 192.581L213.497 183.388C213.497 183.388 213.675 190.756 212.31 195.798Z" fill="black"/>
<path d="M219.884 176.124C219.884 176.124 196.134 215.624 186.331 228.438C175.595 242.474 147.799 268.912 147.799 268.912L139.519 263.15C139.519 263.15 163.529 236.684 172.577 222.038C182.901 205.354 199.084 167.432 199.084 167.432L219.884 176.124Z" fill="#263238"/>
<path d="M148.663 269.79L138.915 263.012L140.939 260.097L151.97 267.485L148.663 269.79Z" fill="#F5951F"/>
<path d="M205.766 234.735L200.833 224.782L204.051 223.19L209.731 234.235L205.766 234.735Z" fill="#F5951F"/>
<path d="M240.148 111.173C240.031 111.598 240.148 112.01 240.443 112.086C240.738 112.161 241.047 111.88 241.163 111.448C241.28 111.015 241.163 110.611 240.861 110.535C240.56 110.46 240.265 110.748 240.148 111.173Z" fill="#263238"/>
<path d="M244.991 112.504C244.875 112.936 244.991 113.341 245.286 113.416C245.581 113.492 245.89 113.211 246.006 112.778C246.123 112.346 246.006 111.941 245.712 111.866C245.417 111.791 245.108 112.065 244.991 112.504Z" fill="#263238"/>
<path d="M243.393 112.284C243.548 113.734 243.901 115.156 244.442 116.51C244.092 116.639 243.718 116.69 243.346 116.659C242.974 116.628 242.613 116.517 242.288 116.332L243.393 112.284Z" fill="#FF5652"/>
<path d="M240.175 116.99C239.711 116.805 239.289 116.527 238.935 116.173C238.581 115.819 238.303 115.397 238.117 114.932C238.109 114.899 238.113 114.863 238.13 114.833C238.146 114.802 238.174 114.779 238.207 114.768C238.239 114.759 238.274 114.762 238.305 114.777C238.335 114.792 238.359 114.818 238.371 114.85C238.582 115.358 238.909 115.808 239.326 116.166C239.743 116.523 240.239 116.778 240.772 116.908C240.789 116.911 240.806 116.918 240.82 116.928C240.835 116.938 240.847 116.951 240.856 116.965C240.865 116.98 240.871 116.997 240.873 117.014C240.875 117.032 240.873 117.049 240.868 117.066C240.864 117.083 240.856 117.098 240.845 117.112C240.834 117.126 240.82 117.137 240.805 117.145C240.79 117.154 240.773 117.159 240.755 117.16C240.738 117.162 240.72 117.16 240.704 117.155C240.524 117.113 240.347 117.058 240.175 116.99Z" fill="#263238"/>
<path d="M239.078 109.204C239.038 109.185 239.003 109.157 238.975 109.122C238.953 109.095 238.938 109.064 238.928 109.031C238.919 108.998 238.917 108.964 238.921 108.93C238.926 108.896 238.937 108.863 238.955 108.834C238.972 108.804 238.995 108.779 239.023 108.758C239.345 108.497 239.724 108.317 240.13 108.232C240.536 108.147 240.956 108.161 241.355 108.271C241.42 108.296 241.473 108.345 241.502 108.408C241.532 108.47 241.535 108.542 241.513 108.608C241.49 108.672 241.442 108.724 241.381 108.754C241.319 108.783 241.249 108.787 241.184 108.765C240.866 108.68 240.533 108.673 240.212 108.743C239.891 108.814 239.591 108.96 239.339 109.17C239.301 109.197 239.258 109.214 239.213 109.22C239.167 109.226 239.121 109.221 239.078 109.204Z" fill="#263238"/>
<path d="M247.529 111.393C247.49 111.376 247.456 111.35 247.429 111.316C247.403 111.282 247.385 111.243 247.378 111.201C247.328 110.877 247.201 110.569 247.007 110.304C246.814 110.039 246.56 109.825 246.267 109.678C246.233 109.667 246.201 109.648 246.175 109.625C246.148 109.601 246.126 109.572 246.111 109.539C246.096 109.506 246.088 109.471 246.087 109.435C246.087 109.399 246.093 109.363 246.107 109.33C246.121 109.297 246.141 109.267 246.167 109.242C246.193 109.217 246.224 109.198 246.258 109.185C246.291 109.173 246.327 109.167 246.363 109.17C246.399 109.172 246.434 109.181 246.466 109.197C246.838 109.378 247.162 109.646 247.409 109.978C247.656 110.31 247.82 110.696 247.886 111.105C247.893 111.138 247.893 111.172 247.886 111.206C247.88 111.239 247.866 111.271 247.847 111.299C247.828 111.327 247.803 111.351 247.775 111.37C247.746 111.388 247.714 111.401 247.68 111.406C247.63 111.419 247.577 111.414 247.529 111.393Z" fill="#263238"/>
<path d="M140.664 275.82C140.491 275.362 140.371 274.886 140.308 274.4C140.303 274.374 140.307 274.347 140.318 274.322C140.329 274.298 140.347 274.277 140.369 274.263C140.389 274.248 140.413 274.24 140.438 274.24C140.463 274.24 140.487 274.248 140.507 274.263C140.699 274.393 142.352 275.594 142.297 276.287C142.289 276.364 142.262 276.438 142.218 276.502C142.173 276.565 142.113 276.616 142.043 276.65C141.931 276.712 141.804 276.744 141.676 276.744C141.548 276.744 141.422 276.712 141.309 276.65C141.007 276.454 140.78 276.162 140.664 275.82ZM140.63 274.674C140.802 275.621 141.103 276.273 141.446 276.451C141.524 276.489 141.611 276.506 141.698 276.5C141.785 276.494 141.868 276.466 141.94 276.417C142.036 276.376 142.05 276.321 142.05 276.28C142.071 275.923 141.261 275.175 140.63 274.674Z" fill="#F5951F"/>
<path d="M140.314 274.4C140.308 274.383 140.305 274.365 140.305 274.346C140.306 274.328 140.31 274.31 140.318 274.293C140.326 274.277 140.337 274.262 140.35 274.25C140.364 274.237 140.379 274.228 140.397 274.222C140.458 274.222 141.954 273.673 142.674 274.05C142.762 274.094 142.84 274.157 142.901 274.234C142.963 274.311 143.007 274.4 143.031 274.496C143.068 274.589 143.072 274.692 143.044 274.787C143.015 274.883 142.955 274.967 142.873 275.024C142.359 275.381 140.815 274.853 140.349 274.455C140.333 274.439 140.322 274.421 140.314 274.4ZM142.763 274.517C142.721 274.418 142.646 274.338 142.551 274.29C141.949 274.135 141.314 274.171 140.733 274.393C141.337 274.743 142.427 275.017 142.736 274.805C142.736 274.805 142.825 274.743 142.784 274.578L142.763 274.517Z" fill="#F5951F"/>
<path d="M197.65 234.914C197.646 234.89 197.65 234.866 197.659 234.844C197.669 234.822 197.685 234.803 197.705 234.79C197.728 234.776 197.754 234.768 197.781 234.768C197.807 234.768 197.834 234.776 197.856 234.79C198.082 234.962 200.065 236.444 200.031 237.212C200.028 237.283 200.007 237.351 199.969 237.411C199.932 237.471 199.88 237.521 199.818 237.555C199.719 237.625 199.604 237.667 199.483 237.678C199.363 237.689 199.242 237.668 199.132 237.617C198.384 237.315 197.877 235.806 197.643 234.934L197.65 234.914ZM199.77 237.143C199.715 236.711 198.768 235.84 198.007 235.236C198.371 236.416 198.817 237.205 199.235 237.377C199.307 237.407 199.385 237.419 199.463 237.412C199.541 237.405 199.616 237.379 199.681 237.335C199.708 237.324 199.731 237.305 199.747 237.281C199.763 237.256 199.771 237.227 199.77 237.198V237.143Z" fill="#F5951F"/>
<path d="M216.124 131.932L213.957 130.484C213.209 129.997 212.447 129.524 211.686 129.05C210.156 128.111 208.606 127.219 207.042 126.361C205.478 125.504 203.893 124.722 202.295 124.022C201.499 123.658 200.696 123.336 199.894 123.027L198.693 122.602L198.391 122.499L198.24 122.444C198.24 122.444 198.192 122.444 198.131 122.396C197.555 122.347 196.975 122.382 196.409 122.499C195.62 122.644 194.841 122.839 194.076 123.082C192.392 123.618 190.737 124.241 189.116 124.948C185.789 126.382 182.401 128.014 179.108 129.681L176.782 126.251C179.758 123.718 182.931 121.424 186.27 119.391C187.999 118.339 189.793 117.397 191.641 116.572C192.643 116.137 193.672 115.766 194.721 115.461C195.983 115.074 197.298 114.891 198.618 114.919C199.051 114.941 199.482 114.994 199.907 115.077L200.23 115.152L200.422 115.2L200.799 115.296L202.308 115.687C203.296 115.982 204.291 116.277 205.237 116.641C207.14 117.32 209.002 118.108 210.815 119C212.619 119.865 214.368 120.825 216.076 121.84C216.92 122.362 217.764 122.89 218.594 123.439C219.424 123.988 220.22 124.536 221.112 125.202L216.124 131.932Z" fill="#FFBE9D"/>
<path d="M224.322 126.107C223.108 123.103 211.631 118.994 211.631 118.994L207.92 128.68C207.92 128.68 211.933 131.335 215.26 133.324C221.578 137.131 226.696 132.021 224.322 126.107Z" fill="#F5951F"/>
<path d="M180.212 128.234L177.887 133.276L174.34 128.68C174.34 128.68 177.015 124.18 178.923 125.936L180.212 128.234Z" fill="#FFBE9D"/>
<path d="M172.982 134.861L171.184 130.827L174.34 128.68L177.887 133.276L172.982 134.861Z" fill="#FFBE9D"/>
</svg>
