<svg width="173" height="173" viewBox="0 0 173 173" fill="none" xmlns="http://www.w3.org/2000/svg">
<circle cx="86.5" cy="86.5" r="85.75" fill="#F5F6FD"/>
<path d="M86.75 20.75C73.6965 20.75 60.936 24.6208 50.0824 31.873C39.2287 39.1252 30.7694 49.433 25.774 61.4929C20.7786 73.5528 19.4716 86.8232 22.0182 99.6259C24.5648 112.429 30.8507 124.189 40.081 133.419C49.3112 142.649 61.0713 148.935 73.8741 151.482C86.6768 154.028 99.9472 152.721 112.007 147.726C124.067 142.731 134.375 134.271 141.627 123.418C148.879 112.564 152.75 99.8036 152.75 86.75C152.75 69.2457 145.796 52.4583 133.419 40.0809C121.042 27.7035 104.254 20.75 86.75 20.75ZM77.3214 113.103L53.75 89.5314L61.2457 82.0357L77.3214 98.1114L112.254 63.1786L119.778 70.6554L77.3214 113.103Z" fill="#031E4B"/>
</svg>
