<svg width="16" height="20" viewBox="0 0 16 20" fill="none" xmlns="http://www.w3.org/2000/svg">
<path d="M14 20H0V2H10L14 6V20Z" fill="#42A5F5"/>
<path d="M16 18H2V0H12L16 4V18Z" fill="#90CAF9"/>
<path d="M8.25039 12.15C8.25039 9.80002 10.0504 9.95002 10.0504 8.55002C10.0504 8.20002 9.95039 7.50002 9.05039 7.50002C8.05039 7.50002 8.00039 8.30002 8.00039 8.50002H6.65039C6.65039 8.15002 6.80039 6.40002 9.05039 6.40002C11.3504 6.40002 11.4004 8.20002 11.4004 8.55002C11.4004 10.3 9.50039 10.55 9.50039 12.2H8.25039V12.15ZM8.15039 13.9C8.15039 13.8 8.15039 13.15 8.90039 13.15C9.60039 13.15 9.65039 13.8 9.65039 13.9C9.65039 14.1 9.55039 14.6 8.90039 14.6C8.25039 14.6 8.15039 14.1 8.15039 13.9Z" fill="#1976D2"/>
</svg>
