<svg width="20" height="20" viewBox="0 0 20 20" fill="none" xmlns="http://www.w3.org/2000/svg">
<path d="M16.4005 16.3317L15.8532 16.8412M19 10.001C19.0008 12.0314 18.315 14.0025 17.054 15.5939C15.793 17.1853 14.0309 18.3036 12.054 18.767C10.0772 19.2304 8.00169 19.0117 6.16482 18.1465C4.32795 17.2812 2.83763 15.8203 1.936 14.001M1.936 14.001V19.001M1.936 14.001H6.5M1 10.001C0.998753 7.97018 1.68438 5.99863 2.94544 4.4068C4.2065 2.81496 5.96886 1.69642 7.94609 1.23296C9.92331 0.769501 11.9992 0.988378 13.8363 1.85401C15.6733 2.71965 17.1637 4.18116 18.065 6.001M18.065 6.001V1.001M18.065 6.001H13.5" stroke="white" stroke-width="1.5" stroke-linecap="round" stroke-linejoin="round"/>
</svg>
